<svg xmlns="http://www.w3.org/2000/svg" viewBox="0 0 1449.6 1000" preserveAspectRatio="xMidYMid meet" style="fill:white;"><path d="M1052.3 810.1l-64.6-70.6c-2.2-2.4-6-2.5-8.3-0.2l-10.1 10.1c-2.3 2.3-2.2 6.1 0.2 8.3l70.6 64.6c-2.8 8.7 0.2 19.7 8.3 27.9 6.4 6.4 14.6 9.6 22.1 9.3 -2-3.1-2.7-6-1.4-7.3 1.8-1.8 6.8 0.2 11.1 4.5 0 0 0 0 0 0 -4.3-4.4-6.3-9.3-4.5-11.1 1.8-1.8 6.8 0.2 11.1 4.5 0 0 0 0 0 0 -4.3-4.4-6.3-9.3-4.5-11.1 1.3-1.3 4.2-0.6 7.3 1.4 0.3-7.4-2.9-15.7-9.3-22.1C1072 810.3 1061 807.3 1052.3 810.1zM1077.3 822.7c-0.6 0.6-1.5 0.6-2.1 0 -8-8-19.6-9.5-25.8-3.2s-4.8 17.8 3.2 25.8c0.6 0.6 0.6 1.5 0 2.1s-1.5 0.6-2.1 0c-9.2-9.2-10.6-22.7-3.2-30.1 7.4-7.4 20.9-5.9 30.1 3.2C1077.9 821.1 1077.9 822.1 1077.3 822.7zM855.6 178l13.3 5.5c3 1.3 6.5-0.2 7.6-3.3l32.7-90c9.1-0.8 18.2-7.7 22.6-18.4 3.5-8.4 3.3-17.2 0.2-24 -2.1 3.1-4.5 4.8-6.2 4.1 -2.4-1-2.4-6.3-0.1-12 0 0 0 0 0 0 -2.4 5.6-6.2 9.4-8.5 8.4 -2.4-1-2.4-6.3-0.1-12 0 0 0 0 0 0 -2.4 5.6-6.2 9.4-8.5 8.4 -1.7-0.7-2.2-3.6-1.5-7.3 -7 2.6-13.4 8.7-16.8 17.1 -4.4 10.7-2.9 22 3 29l-40.5 86.7C851.2 173.2 852.5 176.7 855.6 178zM893.1 56.4c0.3-0.8 1.2-1.1 2-0.8 0.8 0.3 1.1 1.2 0.8 2 -4.3 10.5-1.2 21.7 6.9 25.1 8.1 3.4 18.3-2.4 22.6-12.9 0.3-0.8 1.2-1.1 2-0.8 0.8 0.3 1.1 1.2 0.8 2 -5 12-16.9 18.5-26.6 14.5C892 81.4 888.2 68.4 893.1 56.4zM1015.1 293.9c-2.8 1.7-3.6 5.4-1.8 8.1l8 11.9c1.8 2.7 5.5 3.4 8.2 1.4l77.2-56.7c8 4.4 19.4 3.7 29-2.7 7.6-5 12.3-12.5 13.5-19.8 -3.5 1.4-6.4 1.5-7.4 0 -1.4-2.1 1.5-6.6 6.6-10 0 0 0 0 0 0 -5.1 3.4-10.4 4.4-11.8 2.3 -1.4-2.1 1.5-6.6 6.6-10 0 0 0 0 0 0 -5.1 3.4-10.4 4.4-11.8 2.3 -1-1.5 0.2-4.2 2.8-6.9 -7.3-1.7-15.9-0.2-23.5 4.8 -9.6 6.4-14.6 16.7-13.6 25.8L1015.1 293.9zM1112.1 221.8c0.7-0.5 1.6-0.3 2.1 0.4 0.5 0.7 0.3 1.6-0.4 2.1 -9.4 6.3-13.1 17.4-8.2 24.7 4.9 7.3 16.5 8.2 26 1.9 0.7-0.5 1.6-0.3 2.1 0.4 0.5 0.7 0.3 1.6-0.4 2.1 -10.8 7.2-24.3 6-30.1-2.7C1097.2 242 1101.3 229 1112.1 221.8zM721.3 52.8l-4.3 95.6c-0.1 3.3 2.4 6 5.7 6h14.3c3.3 0 5.9-2.7 5.7-6l-4.3-95.6c8.1-4.2 13.8-14.1 13.8-25.6 0-9.1-3.5-17.2-9-22.2 -0.8 3.6-2.3 6.1-4.2 6.1 -2.6 0-4.6-4.9-4.7-11.1 0 0 0 0 0 0 0 6.1-2.1 11.1-4.7 11.1 -2.6 0-4.6-4.9-4.7-11.1 0 0 0 0 0 0 0 6.1-2.1 11.1-4.7 11.1 -1.8 0-3.4-2.5-4.2-6.1 -5.5 5.1-9 13.1-9 22.2C707.4 38.7 713.2 48.6 721.3 52.8zM712.5 26.2c0.8 0 1.5 0.7 1.5 1.5 0 11.3 7.2 20.6 16 20.6 8.8 0 16-9.2 16-20.6 0-0.8 0.7-1.5 1.5-1.5s1.5 0.7 1.5 1.5c0 13-8.5 23.6-19 23.6 -10.5 0-19-10.6-19-23.6C711 26.9 711.6 26.2 712.5 26.2zM357.7 334.5l-0.3 0v-0.2L357.7 334.5zM790.3 159.6l14.1 2.8c3.2 0.6 6.3-1.5 6.8-4.8l14.5-94.6c8.8-2.5 16.3-11.1 18.6-22.4 1.8-8.9-0.1-17.5-4.5-23.5 -1.5 3.4-3.5 5.6-5.3 5.2 -2.5-0.5-3.6-5.7-2.4-11.8 0 0 0 0 0 0 -1.2 6-4.2 10.4-6.7 9.9 -2.5-0.5-3.6-5.7-2.4-11.8 0 0 0 0 0 0 -1.2 6-4.2 10.4-6.7 9.9 -1.8-0.4-2.8-3.1-2.9-6.8 -6.4 3.9-11.4 11.1-13.2 20 -2.3 11.3 1.4 22.1 8.6 27.8l-22.8 93C785.1 155.8 787.1 159 790.3 159.6zM803.5 33.1c0.2-0.8 1-1.3 1.8-1.2 0.8 0.2 1.3 1 1.2 1.8 -2.2 11.1 3 21.6 11.7 23.3 8.6 1.7 17.5-5.9 19.7-17 0.2-0.8 1-1.3 1.8-1.2 0.8 0.2 1.3 1 1.2 1.8 -2.5 12.7-12.9 21.4-23.2 19.4C807.2 57.9 800.9 45.8 803.5 33.1zM914.5 200.5c-2 2.7-1.3 6.3 1.4 8.2l11.9 8c2.7 1.8 6.4 1 8.1-1.8l49.6-81.9c9.1 1 19.3-4 25.7-13.6 5-7.6 6.6-16.2 4.8-23.5 -2.7 2.6-5.4 3.8-6.9 2.8 -2.1-1.4-1.1-6.7 2.3-11.8 0 0 0 0 0 0 -3.4 5.1-7.9 8-10 6.6 -2.1-1.4-1.1-6.7 2.3-11.8 0 0 0 0 0 0 -3.4 5.1-7.9 8-10 6.6 -1.5-1-1.4-3.9 0-7.4 -7.4 1.2-14.8 5.9-19.8 13.5 -6.4 9.6-7.2 21-2.7 29L914.5 200.5zM976.6 96.8c0.5-0.7 1.4-0.9 2.1-0.4 0.7 0.5 0.9 1.4 0.4 2.1 -6.3 9.4-5.5 21.1 1.9 26 7.3 4.9 18.4 1.2 24.7-8.2 0.5-0.7 1.4-0.9 2.1-0.4 0.7 0.5 0.9 1.4 0.4 2.1 -7.2 10.8-20.2 14.9-28.9 9C970.5 121.1 969.3 107.6 976.6 96.8zM969.4 242.3c-2.4 2.2-2.5 6-0.2 8.3l10.1 10.1c2.3 2.3 6.1 2.3 8.3-0.2l64.6-70.6c8.7 2.8 19.7-0.2 27.9-8.3 6.4-6.4 9.6-14.6 9.3-22.1 -3.1 2-6 2.7-7.3 1.4 -1.8-1.8 0.2-6.8 4.5-11.1 0 0 0 0 0 0 -4.4 4.3-9.3 6.3-11.1 4.5 -1.8-1.8 0.2-6.8 4.5-11.1 0 0 0 0 0 0 -4.4 4.3-9.3 6.3-11.1 4.5 -1.3-1.3-0.6-4.2 1.4-7.3 -7.4-0.3-15.7 2.9-22.1 9.3 -8.2 8.2-11.1 19.2-8.3 27.9L969.4 242.3zM1050.5 152.6c0.6-0.6 1.5-0.6 2.1 0 0.6 0.6 0.6 1.5 0 2.1 -8 8-9.5 19.6-3.2 25.8 6.2 6.2 17.8 4.8 25.8-3.2 0.6-0.6 1.5-0.6 2.1 0 0.6 0.6 0.6 1.5 0 2.1 -9.2 9.2-22.7 10.6-30.1 3.2C1039.8 175.3 1041.3 161.8 1050.5 152.6zM1185.2 678.5c0.7-1.7 3.6-2.2 7.3-1.5 -2.6-7-8.7-13.4-17.1-16.8 -10.7-4.4-22-2.9-29 3l-86.7-40.5c-3-1.4-6.5 0-7.7 3l-5.5 13.3c-1.3 3 0.2 6.5 3.3 7.6l90 32.7c0.8 9.1 7.7 18.2 18.4 22.6 8.4 3.5 17.2 3.3 24 0.2 -3.1-2.1-4.8-4.5-4.1-6.2 1-2.4 6.3-2.4 12-0.1 0 0 0 0 0 0 -5.6-2.4-9.4-6.2-8.4-8.5 1-2.4 6.3-2.4 12-0.1 0 0 0 0 0 0C1188 684.6 1184.3 680.8 1185.2 678.5zM1174.4 665.2c-0.3 0.8-1.2 1.1-2 0.8 -10.5-4.3-21.7-1.2-25.1 6.9 -3.4 8.1 2.4 18.3 12.9 22.6 0.8 0.3 1.1 1.2 0.8 2 -0.3 0.8-1.2 1.1-2 0.8 -12-5-18.5-16.9-14.5-26.6 4-9.7 17-13.5 29-8.5C1174.3 663.5 1174.7 664.4 1174.4 665.2zM1139.8 320.9l-40.8 14.8c4.3 0.7 8.7 1.4 13 2.2l6.6 1.1v-0.5l17.2 3.3 10.6-5c7 5.9 18.3 7.4 29 3 8.4-3.5 14.5-9.8 17.1-16.8 -3.7 0.7-6.6 0.2-7.3-1.5 -1-2.4 2.8-6.2 8.4-8.5 0 0 0 0 0 0 -5.7 2.3-11 2.3-12-0.1 -1-2.4 2.8-6.2 8.4-8.5 0 0 0 0 0 0 -5.7 2.3-11 2.3-12-0.1 -0.7-1.7 1-4.1 4.1-6.2 -6.8-3.1-15.6-3.3-24 0.2C1147.5 302.7 1140.6 311.7 1139.8 320.9zM1159 301.7c0.8-0.3 1.6 0 2 0.8 0.3 0.8 0 1.6-0.8 2 -10.5 4.3-16.3 14.5-12.9 22.6 3.4 8.1 14.6 11.2 25.1 6.9 0.8-0.3 1.6 0 2 0.8 0.3 0.8 0 1.6-0.8 2 -12 5-25 1.2-29-8.5C1140.5 318.6 1147 306.7 1159 301.7zM1149.1 763.8c-1.2-7.4-5.9-14.8-13.5-19.8 -9.6-6.4-21-7.2-29-2.7l-77.2-56.7c-2.7-2-6.3-1.3-8.2 1.4l-8 11.9c-1.8 2.7-1 6.4 1.8 8.1l81.9 49.6c-1 9.1 4 19.3 13.6 25.7 7.6 5 16.2 6.6 23.5 4.8 -2.6-2.7-3.8-5.4-2.8-6.9 1.4-2.1 6.7-1.1 11.8 2.3 0 0 0 0 0 0 -5.1-3.4-8-7.9-6.6-10 1.4-2.1 6.7-1.1 11.8 2.3 0 0 0 0 0 0 -5.1-3.4-8-7.9-6.6-10C1142.7 762.4 1145.6 762.5 1149.1 763.8zM1133.6 748.7c-0.5 0.7-1.4 0.9-2.1 0.4 -9.4-6.3-21.1-5.5-26 1.9 -4.9 7.3-1.2 18.4 8.2 24.7 0.7 0.5 0.9 1.4 0.4 2.1 -0.5 0.7-1.4 0.9-2.1 0.4 -10.8-7.2-14.9-20.2-9-28.9 5.8-8.7 19.3-9.9 30.1-2.7C1133.9 747.1 1134.1 748 1133.6 748.7zM310.8 236.2c1.2 7.4 5.9 14.8 13.5 19.8 9.6 6.4 21 7.2 29 2.7l77.2 56.7c2.7 2 6.3 1.3 8.2-1.4l8-11.9c1.8-2.7 1-6.4-1.8-8.1l-81.9-49.6c1-9.1-4-19.3-13.6-25.7 -7.6-5-16.2-6.6-23.5-4.8 2.6 2.7 3.8 5.4 2.8 6.9 -1.4 2.1-6.7 1.1-11.8-2.3 0 0 0 0 0 0 5.1 3.4 8 7.9 6.6 10 -1.4 2.1-6.7 1.1-11.8-2.3 0 0 0 0 0 0 5.1 3.4 8 7.9 6.6 10C317.2 237.6 314.3 237.5 310.8 236.2zM326.3 251.3c0.5-0.7 1.4-0.9 2.1-0.4 9.4 6.3 21.1 5.5 26-1.9 4.9-7.3 1.2-18.4-8.2-24.7 -0.7-0.5-0.9-1.4-0.4-2.1s1.4-0.9 2.1-0.4c10.8 7.2 14.9 20.2 9 28.9 -5.8 8.7-19.3 9.9-30.1 2.7C326 252.9 325.8 252 326.3 251.3zM320.1 679.1l90-32.7c3.1-1.1 4.6-4.5 3.3-7.6l-5.5-13.2c-1.3-3-4.7-4.4-7.7-3l-86.7 40.5c-7-5.9-18.3-7.4-29-3 -8.4 3.5-14.5 9.8-17.1 16.8 3.7-0.7 6.6-0.2 7.3 1.5 1 2.4-2.8 6.2-8.4 8.5 0 0 0 0 0 0 5.7-2.3 11-2.3 12 0.1s-2.8 6.2-8.4 8.5c0 0 0 0 0 0 5.7-2.3 11-2.3 12 0.1 0.7 1.7-1 4.1-4.1 6.2 6.8 3.1 15.6 3.3 24-0.2C312.4 697.3 319.3 688.3 320.1 679.1zM300.9 698.3c-0.8 0.3-1.6 0-2-0.8 -0.3-0.8 0-1.6 0.8-2 10.5-4.3 16.3-14.5 12.9-22.6 -3.4-8.1-14.6-11.2-25.1-6.9 -0.8 0.3-1.6 0-2-0.8 -0.3-0.8 0-1.6 0.8-2 12-5 25-1.2 29 8.5C319.4 681.4 312.9 693.3 300.9 698.3zM274.7 321.5c-0.7 1.7-3.6 2.2-7.3 1.5 2.6 7 8.7 13.4 17.1 16.8 10.7 4.4 22 2.9 29-3l8.1 3.8 8.2-1.5v-0.2l7.1-1.1 20-3.6 -36.7-13.3c-0.7-9.1-7.7-18.2-18.4-22.6 -8.4-3.5-17.2-3.3-24-0.2 3.1 2.1 4.8 4.5 4.1 6.2 -1 2.4-6.3 2.4-12 0.1 0 0 0 0 0 0 5.6 2.4 9.4 6.2 8.4 8.5 -1 2.4-6.3 2.4-12 0.1 0 0 0 0 0 0C271.9 315.4 275.6 319.2 274.7 321.5zM285.5 334.8c0.3-0.8 1.2-1.1 2-0.8 10.5 4.3 21.7 1.2 25.1-6.9 3.4-8.1-2.4-18.3-12.9-22.6 -0.8-0.3-1.1-1.2-0.8-2 0.3-0.8 1.2-1.1 2-0.8 12 5 18.5 16.9 14.5 26.6 -4 9.7-17 13.5-29 8.5C285.6 336.5 285.2 335.6 285.5 334.8zM444.8 706.1c2.8-1.7 3.6-5.4 1.8-8.1l-8-11.9c-1.8-2.7-5.5-3.4-8.2-1.4l-77.2 56.7c-8-4.4-19.4-3.7-29 2.7 -7.6 5-12.3 12.5-13.5 19.8 3.5-1.4 6.4-1.5 7.4 0 1.4 2.1-1.5 6.6-6.6 10 0 0 0 0 0 0 5.1-3.4 10.4-4.4 11.8-2.3 1.4 2.1-1.5 6.6-6.6 10 0 0 0 0 0 0 5.1-3.4 10.4-4.4 11.8-2.3 1 1.5-0.2 4.2-2.8 6.9 7.3 1.7 15.9 0.2 23.5-4.8 9.6-6.4 14.7-16.7 13.6-25.7L444.8 706.1zM347.8 778.2c-0.7 0.5-1.6 0.3-2.1-0.4 -0.5-0.7-0.3-1.6 0.4-2.1 9.4-6.3 13.1-17.4 8.2-24.7 -4.9-7.3-16.5-8.2-26-1.9 -0.7 0.5-1.6 0.3-2.1-0.4 -0.5-0.7-0.3-1.6 0.4-2.1 10.8-7.2 24.3-6 30.1 2.7C362.7 758 358.6 771 347.8 778.2zM738.6 947.2l4.3-95.6c0.1-3.3-2.4-6-5.7-6h-14.3c-3.3 0-5.9 2.7-5.7 6l4.3 95.6c-8.1 4.2-13.8 14.1-13.8 25.6 0 9.1 3.5 17.2 9 22.2 0.8-3.6 2.3-6.1 4.2-6.1 2.5 0 4.6 4.9 4.7 11.1 0 0 0 0 0 0 0-6.1 2.1-11.1 4.7-11.1 2.6 0 4.6 4.9 4.7 11.1 0 0 0 0 0 0 0-6.1 2.1-11.1 4.7-11.1 1.8 0 3.4 2.5 4.2 6.1 5.5-5.1 9-13.1 9-22.2C752.4 961.3 746.7 951.4 738.6 947.2zM747.4 973.8c-0.8 0-1.5-0.7-1.5-1.5 0-11.3-7.2-20.6-16-20.6 -8.8 0-16 9.2-16 20.6 0 0.8-0.7 1.5-1.5 1.5s-1.5-0.7-1.5-1.5c0-13 8.5-23.6 19-23.6 10.5 0 19 10.6 19 23.6C748.9 973.1 748.3 973.8 747.4 973.8zM545.3 799.5c2-2.7 1.3-6.3-1.4-8.2l-11.9-8c-2.7-1.8-6.4-1-8.1 1.8l-49.6 81.9c-9.1-1-19.3 4-25.7 13.6 -5 7.6-6.6 16.2-4.8 23.5 2.7-2.6 5.4-3.8 6.9-2.8 2.1 1.4 1.1 6.7-2.3 11.8 0 0 0 0 0 0 3.4-5.1 7.9-8 10-6.6 2.1 1.4 1.1 6.7-2.3 11.8 0 0 0 0 0 0 3.4-5.1 7.9-8 10-6.6 1.5 1 1.4 4 0 7.4 7.4-1.2 14.8-5.9 19.8-13.5 6.4-9.6 7.2-21 2.7-29L545.3 799.5zM483.3 903.2c-0.5 0.7-1.4 0.9-2.1 0.4 -0.7-0.5-0.9-1.4-0.4-2.1 6.3-9.4 5.5-21.1-1.9-26 -7.3-4.9-18.4-1.2-24.7 8.2 -0.5 0.7-1.4 0.9-2.1 0.4 -0.7-0.5-0.9-1.4-0.4-2.1 7.2-10.8 20.2-14.9 28.9-9C489.3 878.9 490.6 892.4 483.3 903.2zM490.5 757.7c2.4-2.2 2.5-6 0.2-8.3l-10.1-10.1c-2.3-2.3-6.1-2.3-8.3 0.2l-64.6 70.6c-8.7-2.8-19.7 0.2-27.9 8.3 -6.4 6.4-9.6 14.6-9.3 22.1 3.1-2 6-2.7 7.3-1.4 1.8 1.8-0.2 6.8-4.5 11.1 0 0 0 0 0 0 4.4-4.3 9.3-6.3 11.1-4.5 1.8 1.8-0.2 6.8-4.5 11.1 0 0 0 0 0 0 4.4-4.3 9.3-6.3 11.1-4.5 1.3 1.3 0.6 4.2-1.4 7.3 7.4 0.3 15.7-2.9 22.1-9.3 8.2-8.2 11.1-19.2 8.3-27.9L490.5 757.7zM409.4 847.4c-0.6 0.6-1.5 0.6-2.1 0 -0.6-0.6-0.6-1.5 0-2.1 8-8 9.5-19.6 3.2-25.8s-17.8-4.8-25.8 3.2c-0.6 0.6-1.5 0.6-2.1 0 -0.6-0.6-0.6-1.5 0-2.1 9.2-9.2 22.7-10.6 30.1-3.2S418.6 838.2 409.4 847.4zM669.6 840.4l-14.1-2.8c-3.2-0.6-6.3 1.5-6.8 4.8l-14.5 94.6c-8.8 2.5-16.3 11.1-18.6 22.4 -1.8 8.9 0.1 17.5 4.5 23.5 1.5-3.4 3.5-5.6 5.3-5.2 2.5 0.5 3.6 5.7 2.4 11.8 0 0 0 0 0 0 1.2-6 4.2-10.4 6.7-9.9 2.5 0.5 3.6 5.7 2.4 11.8 0 0 0 0 0 0 1.2-6 4.2-10.4 6.7-9.9 1.8 0.4 2.8 3.1 2.9 6.8 6.4-3.9 11.4-11.1 13.2-20 2.3-11.3-1.4-22.1-8.6-27.8l22.8-93C674.8 844.2 672.8 841 669.6 840.4zM656.4 966.9c-0.2 0.8-1 1.3-1.8 1.2 -0.8-0.2-1.3-0.9-1.2-1.8 2.2-11.1-3-21.6-11.7-23.3 -8.6-1.7-17.5 5.9-19.7 17.1 -0.2 0.8-1 1.3-1.8 1.2 -0.8-0.2-1.3-0.9-1.2-1.8 2.5-12.7 12.9-21.5 23.2-19.4S659 954.2 656.4 966.9zM825.7 936.9l-14.5-94.6c-0.5-3.3-3.6-5.4-6.8-4.8l-14.1 2.8c-3.2 0.6-5.2 3.8-4.5 7l22.8 93c-7.2 5.7-10.8 16.5-8.6 27.8 1.8 8.9 6.8 16.1 13.2 20 0-3.7 1.1-6.5 2.9-6.8 2.5-0.5 5.5 3.9 6.7 9.9 0 0 0 0 0 0 -1.2-6-0.1-11.3 2.4-11.8 2.5-0.5 5.5 3.9 6.7 9.9 0 0 0 0 0 0 -1.2-6-0.1-11.3 2.4-11.8 1.8-0.4 3.8 1.8 5.3 5.2 4.4-6 6.3-14.6 4.5-23.5C842 948.1 834.5 939.5 825.7 936.9zM839.5 961.3c-0.8 0.2-1.6-0.4-1.8-1.2 -2.2-11.1-11-18.8-19.7-17 -8.6 1.7-13.9 12.2-11.7 23.3 0.2 0.8-0.4 1.6-1.2 1.8 -0.8 0.2-1.6-0.4-1.8-1.2 -2.5-12.7 3.8-24.8 14-26.8 10.3-2 20.7 6.7 23.2 19.4C840.9 960.3 840.3 961.1 839.5 961.3zM550.8 90.1l32.7 90c1.1 3.1 4.5 4.6 7.6 3.3l13.3-5.5c3-1.3 4.4-4.7 3-7.7l-40.5-86.7c5.9-7 7.4-18.3 3-29 -3.5-8.4-9.8-14.5-16.8-17.1 0.7 3.7 0.2 6.6-1.5 7.3 -2.4 1-6.2-2.8-8.5-8.4 0 0 0 0 0 0 2.3 5.7 2.3 11-0.1 12 -2.4 1-6.2-2.8-8.5-8.4 0 0 0 0 0 0 2.3 5.7 2.3 11-0.1 12 -1.7 0.7-4.1-1-6.2-4.1 -3.1 6.8-3.3 15.6 0.2 24C532.6 82.4 541.7 89.4 550.8 90.1zM532.5 69c0.8-0.3 1.6 0 2 0.8 4.3 10.5 14.5 16.3 22.6 12.9s11.2-14.6 6.9-25.1c-0.3-0.8 0-1.6 0.8-2 0.8-0.3 1.6 0 2 0.8 5 12 1.2 25-8.5 29 -9.7 4-21.6-2.5-26.6-14.5C531.4 70.2 531.7 69.3 532.5 69zM634.2 63.1l14.5 94.6c0.5 3.3 3.6 5.4 6.8 4.8l14.1-2.8c3.2-0.6 5.2-3.8 4.5-7l-22.8-93c7.2-5.7 10.8-16.5 8.6-27.8 -1.8-8.9-6.8-16.1-13.2-20 0 3.7-1.1 6.5-2.9 6.8 -2.5 0.5-5.5-3.9-6.7-9.9 0 0 0 0 0 0 1.2 6 0.1 11.3-2.4 11.8s-5.5-3.9-6.7-9.9c0 0 0 0 0 0 1.2 6 0.1 11.3-2.4 11.8 -1.8 0.4-3.8-1.8-5.3-5.2 -4.4 6-6.3 14.6-4.5 23.5C617.9 51.9 625.4 60.5 634.2 63.1zM620.4 38.7c0.8-0.2 1.6 0.4 1.8 1.2 2.2 11.1 11 18.8 19.7 17.1 8.6-1.7 13.9-12.2 11.7-23.3 -0.2-0.8 0.4-1.6 1.2-1.8s1.6 0.4 1.8 1.2c2.5 12.7-3.8 24.8-14 26.8s-20.7-6.7-23.2-19.4C619 39.7 619.6 38.9 620.4 38.7zM909.1 909.9l-32.7-90c-1.1-3.1-4.5-4.6-7.6-3.3l-13.2 5.5c-3 1.3-4.4 4.7-3 7.7l40.5 86.7c-5.9 7-7.4 18.3-3 29 3.5 8.4 9.8 14.5 16.8 17.1 -0.7-3.7-0.2-6.6 1.5-7.3 2.4-1 6.2 2.8 8.5 8.4 0 0 0 0 0 0 -2.3-5.7-2.3-11 0.1-12 2.4-1 6.2 2.8 8.5 8.4 0 0 0 0 0 0 -2.3-5.7-2.3-11 0.1-12 1.7-0.7 4.1 1 6.2 4.1 3.1-6.8 3.3-15.6-0.2-24C927.3 917.6 918.2 910.6 909.1 909.9zM927.4 931c-0.8 0.3-1.6 0-2-0.8 -4.3-10.5-14.5-16.3-22.6-12.9s-11.2 14.6-6.9 25.1c0.3 0.8 0 1.6-0.8 2 -0.8 0.3-1.6 0-2-0.8 -5-12-1.2-25 8.5-29 9.7-4 21.6 2.5 26.6 14.5C928.5 929.8 928.2 930.7 927.4 931zM604.3 822l-13.3-5.5c-3-1.3-6.5 0.2-7.6 3.3l-32.7 90c-9.1 0.8-18.2 7.7-22.6 18.4 -3.5 8.4-3.3 17.2-0.2 24 2.1-3.1 4.5-4.8 6.2-4.1 2.4 1 2.4 6.3 0.1 12 0 0 0 0 0 0 2.4-5.6 6.2-9.4 8.5-8.4 2.4 1 2.4 6.3 0.1 12 0 0 0 0 0 0 2.4-5.6 6.2-9.4 8.5-8.4 1.7 0.7 2.2 3.6 1.5 7.3 7-2.6 13.4-8.7 16.8-17.1 4.4-10.7 2.9-22-3-29l40.5-86.7C608.7 826.8 607.4 823.3 604.3 822zM566.7 943.6c-0.3 0.8-1.2 1.1-2 0.8 -0.8-0.3-1.1-1.2-0.8-2 4.3-10.5 1.2-21.7-6.9-25.1 -8.1-3.4-18.3 2.4-22.6 12.9 -0.3 0.8-1.2 1.1-2 0.8s-1.1-1.2-0.8-2c5-12 16.9-18.5 26.6-14.5S571.7 931.6 566.7 943.6zM474.3 133l49.6 81.9c1.7 2.8 5.4 3.6 8.1 1.8l11.9-8c2.7-1.8 3.4-5.5 1.4-8.2l-56.7-77.2c4.4-8 3.7-19.4-2.7-29 -5-7.6-12.5-12.3-19.8-13.5 1.4 3.5 1.5 6.4 0 7.4 -2.1 1.4-6.6-1.5-10-6.6 0 0 0 0 0 0 3.4 5.1 4.4 10.4 2.3 11.8 -2.1 1.4-6.6-1.5-10-6.6 0 0 0 0 0 0 3.4 5.1 4.4 10.4 2.3 11.8 -1.5 1-4.2-0.2-6.9-2.8 -1.7 7.3-0.2 15.9 4.8 23.5C454.9 128.9 465.2 134 474.3 133zM452.2 115.8c0.7-0.5 1.6-0.3 2.1 0.4 6.3 9.4 17.4 13.1 24.7 8.2 7.3-4.9 8.2-16.5 1.9-26 -0.5-0.7-0.3-1.6 0.4-2.1 0.7-0.5 1.6-0.3 2.1 0.4 7.2 10.8 6 24.3-2.7 30.1 -8.7 5.8-21.7 1.8-28.9-9C451.3 117.2 451.5 116.2 452.2 115.8zM985.6 867.1l-49.6-81.9c-1.7-2.8-5.4-3.6-8.1-1.8l-11.9 8c-2.7 1.8-3.4 5.5-1.4 8.2l56.7 77.2c-4.4 8-3.7 19.4 2.7 29 5 7.6 12.5 12.3 19.8 13.5 -1.4-3.5-1.5-6.4 0-7.4 2.1-1.4 6.6 1.5 10 6.6 0 0 0 0 0 0 -3.4-5.1-4.4-10.4-2.3-11.8 2.1-1.4 6.6 1.5 10 6.6 0 0 0 0 0 0 -3.4-5.1-4.4-10.4-2.3-11.8 1.5-1 4.2 0.2 6.9 2.8 1.7-7.2 0.2-15.9-4.8-23.5C1004.9 871.1 994.7 866 985.6 867.1zM1007.7 884.2c-0.7 0.5-1.6 0.3-2.1-0.4 -6.3-9.4-17.4-13.1-24.7-8.2 -7.3 4.9-8.2 16.5-1.9 26 0.5 0.7 0.3 1.6-0.4 2.1 -0.7 0.5-1.6 0.3-2.1-0.4 -7.2-10.8-6-24.3 2.7-30.1 8.7-5.8 21.7-1.8 28.9 9C1008.6 882.8 1008.4 883.8 1007.7 884.2zM407.6 189.9l64.6 70.6c2.2 2.4 6 2.5 8.3 0.2l10.1-10.1c2.3-2.3 2.3-6.1-0.2-8.3l-70.6-64.6c2.8-8.7-0.2-19.7-8.3-27.9 -6.4-6.4-14.6-9.6-22.1-9.3 2 3.1 2.7 6 1.4 7.3 -1.8 1.8-6.8-0.2-11.1-4.5 0 0 0 0 0 0 4.3 4.4 6.3 9.3 4.5 11.1 -1.8 1.8-6.8-0.2-11.1-4.5 0 0 0 0 0 0 4.3 4.4 6.3 9.3 4.5 11.1 -1.3 1.3-4.2 0.6-7.3-1.4 -0.3 7.4 2.9 15.7 9.3 22.1C387.8 189.7 398.9 192.7 407.6 189.9zM382.6 177.3c0.6-0.6 1.5-0.6 2.1 0 8 8 19.6 9.5 25.8 3.2s4.8-17.8-3.2-25.8c-0.6-0.6-0.6-1.5 0-2.1 0.6-0.6 1.5-0.6 2.1 0 9.2 9.2 10.6 22.7 3.2 30.1 -7.4 7.4-20.9 5.9-30.1-3.2C382 178.9 382 177.9 382.6 177.3z" /><path d="M724.8 345.2c34.5 0 69 0.8 103.5 2.4 0 17.7 0 35.4 0 53.1 -14.1-0.6-28.3-1.2-42.4-1.5 0-3.7 0-7.3 0-11 -3.8-0.1-7.6-0.2-11.3-0.3 0 34.1 0 68.2 0 102.4 3.8 0.1 7.6 0.2 11.3 0.3 0 14 0 28.1 0 42.1 -20.4-0.5-40.7-0.8-61.1-0.8 -4.6 0-9.2 0-13.7 0 0-14 0-28.1 0-42.1 3.9 0 7.7 0 11.6 0 0-34.1 0-68.2 0-102.4 -3.9 0-7.7 0-11.6 0 0 3.7 0 7.3 0 11 -14.1 0.1-28.3 0.3-42.4 0.7 0-17.7 0-35.4 0-53.1C687.4 345.5 706.1 345.2 724.8 345.2M656 346.3c0 16.4 0 32.9 0 49.3 -14.2 0.4-28.4 1-42.6 1.7 0-2.4 0-4.8 0-7.2 -11 0.5-22.1 1.2-33.1 1.9 0 10 0 20 0 30 2.6-0.2 5.1-0.3 7.7-0.5 0-2.4 0-4.8 0-7.2 14.1-0.9 28.2-1.6 42.4-2.2 0 18.9 0 37.8 0 56.7 -14.1 0.6-28.3 1.3-42.4 2.2 0-2.5 0-4.9 0-7.4 -2.6 0.2-5.1 0.3-7.7 0.5 0 10.1 0 20.2 0 30.2 11-0.7 22-1.3 33.1-1.9 0-2.5 0-4.9 0-7.4 14.2-0.7 28.4-1.3 42.6-1.7 0 16.5 0 33 0 49.5 -46.3 1.4-92.6 4.2-138.8 8.5 0-14 0-28.1 0-42.1 3.8-0.3 7.5-0.7 11.3-1 0-34.1 0-68.2 0-102.4 -3.8 0.3-7.5 0.7-11.3 1 0-14 0-28.1 0-42.1C563.3 350.5 609.6 347.7 656 346.3M837.8 348c46.3 2.3 92.6 6 138.7 11.2 0 16.4 0 32.9 0 49.3 -14.1-1.6-28.3-3-42.5-4.3 0-2.4 0-4.8 0-7.2 -11-1-22-2-33-2.8 0 10 0 20 0 30 2.6 0.2 5.1 0.4 7.7 0.6 0-2.4 0-4.8 0-7.2 14.1 1.1 28.2 2.4 42.3 3.8 0 18.9 0 37.8 0 56.7 -14.1-1.4-28.2-2.7-42.3-3.8 0-2.5 0-4.9 0-7.4 -2.6-0.2-5.1-0.4-7.7-0.6 0 10.1 0 20.2 0 30.2 11 0.9 22 1.8 33 2.8 0-2.5 0-4.9 0-7.4 14.2 1.3 28.3 2.8 42.5 4.3 0 16.5 0 33 0 49.5 -46.1-5.1-92.4-8.9-138.7-11.2 0-14 0-28.1 0-42.1 3.8 0.2 7.6 0.4 11.3 0.6 0-34.1 0-68.2 0-102.4 -3.8-0.2-7.6-0.4-11.3-0.6C837.8 376.1 837.8 362.1 837.8 348M507.9 355.6c0 16.4 0 32.9 0 49.3 -14.2 1.4-28.3 2.8-42.5 4.5 0-2.4 0-4.8 0-7.2 -11 1.3-22 2.6-32.9 4 0 10 0 20 0 30 2.6-0.3 5.1-0.7 7.7-1 0-2.4 0-4.8 0-7.2 14.1-1.8 28.1-3.4 42.2-4.9 0 18.9 0 37.8 0 56.7 -14.1 1.5-28.1 3.2-42.2 4.9 0-2.5 0-4.9 0-7.4 -2.6 0.3-5.1 0.6-7.7 1 0 10.1 0 20.2 0 30.2 7.2-0.9 14.4-1.8 21.6-2.7 0 14 0 28.1 0 42.1 -28.2 3.4-56.3 7.3-84.4 11.7 0-14 0-28.1 0-42.1 3.7-0.6 7.5-1.2 11.2-1.7 0-34.1 0-68.2 0-102.4 -3.7 0.6-7.5 1.2-11.2 1.7 0-14 0-28.1 0-42.1C415.6 365.9 461.7 360 507.9 355.6M989.1 360.7c38.8 4.5 77.5 10.1 116.1 16.6 9.9 11.7 19.9 23.4 29.8 35.2 0 15.9 0 31.7 0 47.6 -4.1 3.3-8.2 6.7-12.3 10.1 4.1 4.8 8.2 9.5 12.3 14.3 0 14.2 0 28.4 0 42.6 3.7 0.7 7.5 1.4 11.2 2.1 0 14 0 28.1 0 42.1 -20.8-3.9-41.7-7.6-62.6-10.9 0-23.1 0-46.3 0-69.4 -2-2.3-4-4.7-6.1-7 -8.5-1.3-17.1-2.6-25.6-3.9 0 11.1 0 22.3 0 33.4 3.8 0.5 7.5 1.1 11.2 1.7 0 14 0 28.1 0 42.1 -24.7-3.7-49.4-7-74.1-9.9 0-14 0-28.1 0-42.1 3.8 0.4 7.5 0.9 11.3 1.3 0-34.1 0-68.2 0-102.4 -3.8-0.5-7.5-0.9-11.3-1.3C989.1 388.7 989.1 374.7 989.1 360.7M1077.6 441.8c2-1.7 4-3.4 6.1-5 0-5 0-9.9 0-14.9 -2-2.3-4-4.6-6.1-7 -8.5-1.3-17.1-2.6-25.6-3.9 0 9 0 17.9 0 26.9C1060.6 439.1 1069.1 440.4 1077.6 441.8M317.4 382c0 14 0 28.1 0 42.1 -3.1 0.6-6.3 1.1-9.4 1.7 13.7 31.6 27.3 63.3 41 95.1 3.7-0.6 7.5-1.2 11.2-1.9 0 14 0 28.1 0 42.1 -24 3.9-47.9 8.2-71.7 12.8 0-14 0-28.1 0-42.1 2-0.4 4-0.8 6-1.2 -0.9-2.6-1.8-5.2-2.7-7.8 -16.5 3.2-32.9 6.6-49.3 10.1 -1 3-1.9 5.9-2.9 8.9 2-0.4 4-0.9 6-1.3 0 14 0 28.1 0 42.1 -23.7 5.1-47.4 10.6-70.9 16.5 0-14 0-28.1 0-42.1 3.7-0.9 7.4-1.8 11.1-2.7 13.5-37.4 27.1-74.7 40.7-111.9 -2.7 0.6-5.3 1.2-8 1.8 0-14 0-28.1 0-42.1C251.4 394.8 284.3 388 317.4 382M255.3 494.6c7.9-1.7 15.8-3.3 23.7-4.9 -3.9-9.1-7.9-18.1-11.8-27.2C263.2 473.2 259.2 483.9 255.3 494.6M1158.6 387c24.5 4.8 49 9.9 73.4 15.5 0 14 0 28.1 0 42.1 -3.7-0.8-7.4-1.7-11.1-2.5 0 34.1 0 68.2 0 102.4 3.7 0.8 7.4 1.7 11.1 2.5 0 14 0 28.1 0 42.1 -24.4-5.6-48.9-10.8-73.4-15.5 0-14 0-28.1 0-42.1 3.7 0.7 7.5 1.5 11.2 2.2 0-34.1 0-68.2 0-102.4 -3.7-0.7-7.4-1.5-11.2-2.2C1158.6 415.1 1158.6 401 1158.6 387M1288.1 416.1c32.7 8.4 65.3 17.5 97.7 27.3 0 14 0 28.1 0 42.1 -3.1-0.9-6.1-1.9-9.2-2.8 13.4 38.1 26.8 76.4 40.1 114.8 3.6 1.2 7.3 2.3 10.9 3.5 0 14 0 28.1 0 42.1 -23.3-7.6-46.7-14.8-70.1-21.5 0-14 0-28.1 0-42.1 2 0.6 4 1.1 5.9 1.7 -0.9-3-1.8-6-2.6-9.1 -16.2-4.7-32.4-9.3-48.7-13.6 -1 2.5-1.9 5-2.9 7.5 2 0.5 4 1.1 6 1.6 0 14 0 28.1 0 42.1 -23.5-6.3-47.1-12.2-70.7-17.8 0-14 0-28.1 0-42.1 3.7 0.9 7.4 1.7 11.1 2.6 13.5-30.9 27.1-61.6 40.6-92.2 -2.7-0.7-5.3-1.4-8-2.1C1288.1 444.2 1288.1 430.1 1288.1 416.1M1348 532.6c-3.9-11-7.8-21.9-11.7-32.9 -3.9 8.8-7.8 17.5-11.7 26.3C1332.4 528.2 1340.2 530.4 1348 532.6M131.8 423.9c9.8 7.3 19.6 14.7 29.4 22.2 0 13.9 0 27.8 0 41.8 -16.9 4.3-33.8 8.8-50.6 13.6 0-7.9 0-15.7 0-23.6 -1.9-1.5-3.8-2.9-5.7-4.4 -9 2.5-17.9 5.1-26.8 7.8 -2 2.6-4 5.2-5.9 7.8 0 30.2 0 60.4 0 90.5 2 1.3 4 2.7 5.9 4 8.9-2.6 17.9-5.2 26.8-7.8 1.9-2.5 3.8-5 5.7-7.4 0-7.5 0-14.9 0-22.4 16.8-4.7 33.7-9.2 50.6-13.6 0 13.5 0 27 0 40.5 -9.8 12.4-19.6 25-29.4 37.5 -27 7.3-53.9 15.1-80.7 23.4 -9.7-6.9-19.4-13.7-29.1-20.5 0-42.3 0-84.6 0-126.9 9.7-13.1 19.4-26.2 29.1-39.2C77.9 439 104.8 431.2 131.8 423.9M724.8 323.2v22l0-22c-15.5 0-31.2 0.2-46.8 0.5v-0.1l-16.2 0.5 -15.1 0.4v0.1c-38.8 1.3-78 3.7-116.8 7v-0.1l-19.4 1.9 -15.3 1.4v0.1c-43 4.3-86.3 9.9-128.9 16.6l-18.6 2.9v18.8 42.1 25.8l11.2-1.8v49.1c-6.6-15.2-13.2-30.5-19.7-45.8l0.2 0V424.1v-42.1 -26.4l-25.9 4.7c-33.3 6.1-66.9 13-99.9 20.5l-17.1 3.9v17.5 42.1 16.3c-4.4 12.1-8.9 24.3-13.3 36.5v-9.3 -41.8 -10.9l-8.7-6.6c-9.8-7.4-19.7-14.9-29.5-22.3l-8.6-6.4 -10.3 2.8c-27.2 7.3-54.6 15.3-81.5 23.6l-6.8 2.1 -4.3 5.7c-9.7 13-19.5 26.3-29.2 39.3L0 479.3v7.2 126.9 11.5l9.4 6.6c9.6 6.7 19.4 13.6 29 20.4l8.9 6.3 10.4-3.2c26.4-8.2 53.3-16 80-23.2l7.1-1.9 4.5-5.8c1.2-1.5 2.4-3 3.6-4.6v8.1l27.3-6.8c23.2-5.8 46.8-11.3 70.2-16.3l17.4-3.7v-0.1l25.1-4.9c23.5-4.6 47.4-8.9 71-12.7l4.5-0.7 4.8-0.8c27.7-4.4 55.8-8.3 83.6-11.6l19.4-2.3v-19.5V505.9v-3.2c2.9-0.3 5.7-0.6 8.6-0.9l10.5-1.1v40.7 24.1l24-2.2c45.5-4.2 91.8-7 137.5-8.4l21.3-0.6v-21.3 -49.5 -22.7l-22.7 0.7c-1 0-2 0.1-3 0.1v-40l16.9-0.4c10.4-0.3 21-0.4 31.4-0.6v47.4l-11.6 0.1v21.9 42.1 22.1l22.1-0.1c4.5 0 9.1 0 13.6 0 20.1 0 40.4 0.3 60.5 0.8l22.6 0.6v-22.6V490.5v-21.4l-11.3-0.3v-47.3c10.2 0.3 20.4 0.7 30.6 1.2v47.3l-11.3-0.6v23.1 42.1 20.9l20.9 1c45.7 2.3 91.9 6 137.3 11.1l6.1 0.7 6.4 0.7c24.4 2.9 49.1 6.2 73.4 9.8l10.1 1.5 10.2 1.6c20.6 3.3 41.5 6.9 62 10.8l6.1 1.2 6.1 1.2c24.2 4.7 48.7 9.9 72.7 15.4l6.3 1.4 6 1.4c23.3 5.5 46.9 11.4 70 17.6l26 7v0.1l15.9 4.6c23.1 6.7 46.5 13.9 69.5 21.3l28.8 9.4v-30.3V601v-16l-15.2-4.9c-0.2-0.1-0.4-0.1-0.5-0.2 -8.6-24.8-17.3-49.8-26.1-74.7v-19.8V443.4 427.1l-15.6-4.7c-32.5-9.9-65.7-19.2-98.6-27.6l-27.4-7v28.3 42.1 15.5c-7.8 17.6-15.6 35.3-23.3 53v-57l11.1 2.5v-27.6 -42.1 -17.5l-17.1-3.9c-24.5-5.6-49.4-10.9-74.1-15.7l-26.2-5.1v19.9c-4.9-5.7-9.7-11.5-14.6-17.2l-5.2-6.1 -7.9-1.3c-36.5-6.2-73.6-11.6-110.4-16v-0.1l-13.2-1.5 -18.2-2.1v0.1c-38.7-4.1-77.9-7.3-116.8-9.4v-0.1l-16.3-0.7 -18.2-0.9v0.1C785.6 323.8 755 323.2 724.8 323.2L724.8 323.2zM504.3 427.3c0.7-0.1 1.4-0.1 2.1-0.2v51l-2.1 0.2V427.3L504.3 427.3zM973 473.8v-43.5c0.4 0 0.7 0.1 1.1 0.1l4.4 0.5v43.5C976.6 474.2 974.8 474 973 473.8L973 473.8z" /><path d="M593.1 647.9v11.6h-33.2v13.5h30.4v10.7h-30.4v15.4h33.9v11.6h-47.7v-62.8H593.1zM612.3 699.4c0.6 1 1.3 1.8 2.2 2.4 0.9 0.6 1.9 1.1 3 1.4 1.1 0.3 2.3 0.4 3.6 0.4 0.9 0 1.8-0.1 2.8-0.3 1-0.2 1.8-0.5 2.6-1 0.8-0.4 1.5-1 2-1.8 0.5-0.7 0.8-1.7 0.8-2.8 0-1.9-1.2-3.3-3.7-4.2 -2.5-0.9-6-1.9-10.4-2.8 -1.8-0.4-3.6-0.9-5.3-1.5 -1.7-0.6-3.3-1.3-4.6-2.2 -1.4-0.9-2.4-2.1-3.3-3.4 -0.8-1.4-1.2-3.1-1.2-5.1 0-2.9 0.6-5.3 1.7-7.2 1.1-1.9 2.7-3.4 4.5-4.4 1.9-1.1 4-1.8 6.3-2.3 2.3-0.4 4.8-0.7 7.2-0.7 2.5 0 4.9 0.2 7.2 0.7 2.3 0.5 4.4 1.3 6.2 2.4 1.8 1.1 3.3 2.6 4.5 4.4 1.2 1.8 1.9 4.2 2.2 7h-11.9c-0.2-2.4-1.1-4-2.7-4.9 -1.6-0.8-3.6-1.3-5.8-1.3 -0.7 0-1.5 0-2.3 0.1 -0.8 0.1-1.6 0.3-2.2 0.6 -0.7 0.3-1.2 0.7-1.7 1.3 -0.5 0.6-0.7 1.3-0.7 2.2 0 1.1 0.4 2 1.2 2.7 0.8 0.7 1.9 1.3 3.2 1.7 1.3 0.4 2.8 0.8 4.5 1.2 1.7 0.4 3.4 0.7 5.2 1.1 1.8 0.4 3.6 0.9 5.3 1.5 1.7 0.6 3.3 1.4 4.6 2.3 1.3 1 2.4 2.2 3.3 3.6 0.8 1.4 1.2 3.2 1.2 5.3 0 3-0.6 5.5-1.8 7.5 -1.2 2-2.8 3.7-4.7 4.9 -1.9 1.2-4.2 2.1-6.6 2.6 -2.5 0.5-5 0.7-7.6 0.7 -2.6 0-5.2-0.3-7.7-0.8 -2.5-0.5-4.8-1.4-6.7-2.6 -2-1.2-3.6-2.9-4.8-4.9 -1.3-2-2-4.6-2.1-7.6h11.9C611.5 697.3 611.7 698.5 612.3 699.4zM674 665.2v8.4h-9.2v22.5c0 2.1 0.4 3.5 1.1 4.2s2.1 1.1 4.2 1.1c0.7 0 1.4 0 2-0.1 0.6-0.1 1.3-0.1 1.8-0.3v9.7c-1.1 0.2-2.2 0.3-3.5 0.4 -1.3 0.1-2.6 0.1-3.8 0.1 -1.9 0-3.8-0.1-5.5-0.4 -1.7-0.3-3.3-0.8-4.6-1.5 -1.3-0.8-2.4-1.8-3.1-3.3 -0.8-1.4-1.1-3.3-1.1-5.5v-26.8h-7.6v-8.4h7.6v-13.6h12.5v13.6H674zM694.3 697.2v13.6h-13.8v-13.6H694.3zM728.7 663c0.9-3 2.3-5.7 4.2-7.9 1.9-2.3 4.2-4 7.1-5.3 2.8-1.3 6.1-1.9 9.8-1.9 2.8 0 5.5 0.4 8.1 1.3s4.8 2.1 6.7 3.8c1.9 1.6 3.5 3.7 4.6 6.1 1.1 2.4 1.7 5.1 1.7 8.1 0 3.1-0.5 5.8-1.5 8 -1 2.2-2.3 4.2-4 5.9 -1.6 1.7-3.5 3.3-5.6 4.7 -2.1 1.4-4.2 2.8-6.3 4.2 -2.1 1.4-4.2 2.9-6.2 4.4 -2 1.6-3.8 3.4-5.3 5.5h29.1v10.7h-45.2c0-3.6 0.5-6.7 1.5-9.3 1-2.6 2.4-5 4.2-7.1 1.8-2.1 3.8-4 6.2-5.8s4.9-3.5 7.5-5.4c1.3-0.9 2.8-1.9 4.3-2.9 1.5-1 2.9-2 4.2-3.2 1.3-1.2 2.3-2.5 3.2-4 0.9-1.5 1.3-3.1 1.3-5 0-3-0.9-5.3-2.6-7s-3.9-2.5-6.6-2.5c-1.8 0-3.4 0.4-4.6 1.3 -1.3 0.9-2.3 2-3 3.3 -0.8 1.4-1.3 2.9-1.6 4.6 -0.3 1.7-0.5 3.3-0.5 5h-12C727.3 669.3 727.7 666 728.7 663zM776.8 664.6c1.2-4.1 2.8-7.3 4.9-9.8 2.1-2.5 4.4-4.2 7.2-5.3s5.6-1.6 8.7-1.6c3.1 0 6 0.5 8.8 1.6 2.7 1.1 5.1 2.8 7.2 5.3 2.1 2.5 3.7 5.7 4.9 9.8 1.2 4.1 1.8 9.1 1.8 15.1 0 6.2-0.6 11.3-1.8 15.4 -1.2 4.1-2.8 7.4-4.9 9.9 -2.1 2.5-4.5 4.2-7.2 5.3 -2.7 1.1-5.6 1.6-8.8 1.6 -3.1 0-5.9-0.5-8.7-1.6 -2.7-1.1-5.1-2.8-7.2-5.3 -2.1-2.5-3.7-5.8-4.9-9.9 -1.2-4.1-1.8-9.3-1.8-15.4C775 673.7 775.6 668.7 776.8 664.6zM787.6 686c0.1 2.5 0.5 4.9 1.1 7.2 0.6 2.3 1.6 4.3 2.9 5.9 1.3 1.6 3.3 2.5 5.8 2.5 2.6 0 4.6-0.8 5.9-2.5 1.4-1.6 2.4-3.6 3-5.9 0.6-2.3 1-4.7 1.1-7.2 0.1-2.5 0.2-4.6 0.2-6.4 0-1.1 0-2.3 0-3.8 0-1.5-0.1-3-0.4-4.6 -0.2-1.6-0.5-3.2-0.9-4.7 -0.4-1.6-1-2.9-1.7-4.2 -0.8-1.2-1.7-2.2-2.9-3 -1.2-0.8-2.6-1.1-4.3-1.1 -1.7 0-3.1 0.4-4.3 1.1 -1.1 0.8-2.1 1.8-2.8 3 -0.7 1.2-1.3 2.6-1.7 4.2 -0.4 1.6-0.7 3.1-0.9 4.7 -0.2 1.6-0.3 3.1-0.3 4.6 0 1.5 0 2.8 0 3.8C787.4 681.4 787.5 683.6 787.6 686zM844 710.7v-40h-15.5v-9.4c2.2 0.1 4.3-0.1 6.3-0.5 2-0.4 3.8-1.1 5.5-2 1.6-1 3-2.2 4.1-3.8s1.8-3.5 2.2-5.9h9.9v61.6H844zM902.3 659.6c-1.5-1.5-3.3-2.3-5.5-2.3 -2.2 0-4.1 0.7-5.6 2 -1.5 1.3-2.7 2.9-3.6 4.8 -0.9 1.9-1.5 3.9-1.9 6.1 -0.4 2.2-0.6 4.1-0.7 5.8l0.2 0.2c1.7-2.5 3.7-4.2 6-5.3 2.3-1.1 4.9-1.6 7.9-1.6 2.6 0 5.2 0.6 7.7 1.7 2.5 1.1 4.7 2.7 6.4 4.6 1.6 1.9 2.8 4 3.6 6.4 0.8 2.4 1.1 4.8 1.1 7.3 0 3.2-0.5 6.1-1.5 8.8 -1 2.7-2.5 5.1-4.4 7.1 -1.9 2-4.2 3.6-6.8 4.8 -2.6 1.1-5.6 1.7-8.8 1.7 -4.6 0-8.5-0.9-11.5-2.8 -3.1-1.8-5.5-4.3-7.3-7.3 -1.8-3-3.1-6.4-3.8-10.2s-1.1-7.6-1.1-11.6c0-3.8 0.4-7.6 1.3-11.4 0.9-3.8 2.3-7.3 4.2-10.3 1.9-3.1 4.4-5.6 7.5-7.5 3.1-1.9 6.8-2.9 11.2-2.9 2.6 0 5.1 0.4 7.4 1.1 2.3 0.8 4.3 1.9 6.1 3.3 1.8 1.4 3.2 3.2 4.3 5.3 1.1 2.1 1.8 4.5 2.2 7.3h-11.9C904.7 662.9 903.8 661.1 902.3 659.6zM891.8 679.7c-1.3 0.6-2.3 1.5-3.1 2.5 -0.8 1.1-1.4 2.3-1.8 3.7 -0.4 1.4-0.6 2.8-0.6 4.4 0 1.4 0.2 2.8 0.7 4.2 0.4 1.4 1.1 2.6 1.9 3.7 0.9 1.1 1.9 2 3.1 2.6 1.2 0.6 2.6 1 4.2 1 1.5 0 2.9-0.3 4-1 1.1-0.6 2.1-1.5 2.9-2.6 0.8-1.1 1.4-2.3 1.8-3.6 0.4-1.3 0.6-2.7 0.6-4.1 0-1.5-0.2-2.9-0.6-4.3 -0.4-1.4-1-2.6-1.7-3.7 -0.8-1.1-1.7-2-2.9-2.6 -1.2-0.7-2.6-1-4.2-1C894.5 678.8 893 679.1 891.8 679.7z" /></svg>
